<svg width="274" height="64" viewBox="0 0 274 64" fill="none" xmlns="http://www.w3.org/2000/svg">
<path d="M32.0033 0C14.3285 0 0 14.3285 0 32.0033C0 49.6781 14.3285 64 32.0033 64C49.6781 64 64 49.6764 64 32.0033C64 14.3302 49.6764 0 32.0033 0ZM32.0033 58.0769C17.6002 58.0769 5.9231 46.4065 5.9231 32.0017C5.9231 17.5969 17.6002 5.92144 32.0033 5.92144C46.4065 5.92144 58.0786 17.5985 58.0786 32.0017C58.0786 46.4048 46.4081 58.0769 32.0033 58.0769Z" fill="#EC6864"/>
<path d="M22.2134 15.207C20.7111 15.207 19.4873 16.4242 19.4873 17.9331V24.1895H19.4625C17.849 24.1895 16.5391 22.8845 16.5391 21.2661V18.1321C16.5391 16.512 17.849 15.2087 19.4625 15.2087H22.2134V15.207Z" fill="#FF7C7C"/>
<path d="M34.3416 15.2077C32.7282 15.2077 31.4182 16.5127 31.4182 18.1311V24.1885H28.4749V17.9321C28.4749 16.4232 27.2512 15.2061 25.7422 15.2061H34.3416V15.2077Z" fill="#FF7C7C"/>
<path d="M40.4054 18.1304V21.2644C40.4054 22.8845 39.1004 24.1879 37.482 24.1879H31.418V18.1304C31.418 16.5104 32.7279 15.207 34.3414 15.207H37.482C39.1021 15.207 40.4054 16.512 40.4054 18.1304Z" fill="#FFB155"/>
<path d="M40.4054 21.2646V29.35C40.4054 30.9701 39.1004 32.2735 37.482 32.2735H36.4622V31.3216C36.4622 29.7082 35.1572 28.3982 33.5388 28.3982H31.418V24.1881H37.482C39.1021 24.1881 40.4054 22.8831 40.4054 21.2646Z" fill="#FFCA6E"/>
<path d="M40.4054 35.1988V40.3608H34.3414C32.7279 40.3608 31.418 41.6708 31.418 43.2842V37.3876H33.5388C35.1589 37.3876 36.4622 36.0776 36.4622 34.4642V32.2754H37.482C39.1021 32.2754 40.4054 33.5854 40.4054 35.1988Z" fill="#FFCA6E"/>
<path d="M40.4054 40.3604V46.4244C40.4054 48.0378 39.1004 49.3478 37.482 49.3478H34.3414C32.7279 49.3478 31.418 48.0378 31.418 46.4244V43.2838C31.418 41.6703 32.7279 40.3604 34.3414 40.3604H40.4054Z" fill="#FFB155"/>
<path d="M46.7465 43.2838V46.4244C46.7465 48.0378 45.4365 49.3478 43.8231 49.3478H37.4805C39.1005 49.3478 40.4039 48.0378 40.4039 46.4244V40.3604H43.8231C45.4365 40.3604 46.7465 41.6703 46.7465 43.2838Z" fill="#FF7C7C"/>
<path d="M34.3394 32.2756C32.7259 32.2756 31.416 33.5856 31.416 35.199V37.3878H28.4727V28.4004H31.416V29.3522C31.416 30.9723 32.7259 32.2756 34.3394 32.2756Z" fill="#FFCC75"/>
<path d="M36.4622 31.3238V32.2756H34.3414C32.7279 32.2756 31.418 30.9706 31.418 29.3522V28.4004H33.5388C35.1589 28.4004 36.4622 29.7104 36.4622 31.3238Z" fill="#FFB155"/>
<path d="M36.4622 32.2754V34.4642C36.4622 36.0776 35.1572 37.3876 33.5388 37.3876H31.418V35.1988C31.418 33.5854 32.7279 32.2754 34.3414 32.2754H36.4622Z" fill="#FFB155"/>
<path d="M28.4718 24.1895V28.3996H22.4078C20.7877 28.3996 19.4844 29.7096 19.4844 31.323V24.1895H28.4718Z" fill="#FF7C7C"/>
<path d="M28.4718 17.9331V24.1895H19.4844V17.9331C19.4844 16.4242 20.7081 15.207 22.2105 15.207H25.7408C27.2497 15.207 28.4735 16.4242 28.4735 17.9331H28.4718Z" fill="#FF6363"/>
<path d="M28.4718 28.3984V37.3859H22.4078C20.7877 37.3859 19.4844 36.0759 19.4844 34.4625V31.3219C19.4844 29.7084 20.7894 28.3984 22.4078 28.3984H28.4718Z" fill="#FFB155"/>
<path d="M28.4735 37.3873V46.6168C28.4735 48.1258 27.2497 49.3496 25.7408 49.3496H22.2105C20.7081 49.3496 19.4844 48.1258 19.4844 46.6168V34.4639C19.4844 36.0773 20.7894 37.3873 22.4078 37.3873H28.4718H28.4735Z" fill="#FF7C7C"/>
<g clip-path="url(#clip0_1913_25369)">
<path d="M167.702 26.8662C166.029 26.8662 164.481 27.4228 163.218 28.3839V27.3458H159.086V49.0019H163.218V41.6195C164.483 42.5806 166.03 43.1372 167.702 43.1372C171.969 43.1372 175.426 39.4932 175.426 35.0017C175.426 30.5102 171.969 26.8662 167.702 26.8662ZM167.318 39.4007C165.278 39.4007 163.579 37.8618 163.216 35.828C163.165 35.5602 163.141 35.2867 163.141 35.0017C163.141 34.7166 163.165 34.4451 163.216 34.1754C163.579 32.1416 165.277 30.6027 167.318 30.6027C169.627 30.6027 171.495 32.5691 171.495 35.0017C171.495 37.4343 169.627 39.4007 167.318 39.4007Z" fill="#FF5C5C"/>
<path d="M98.9337 27.2626V30.949C92.5287 29.8762 92.3633 34.2117 92.3633 34.67V42.8518H88V27.2626H92.3633V29.6123C94.3786 26.1378 98.9337 27.2626 98.9337 27.2626Z" fill="#FF5C5C"/>
<path d="M233.65 27.2935V30.9799C227.245 29.9013 227.08 34.2426 227.08 34.701V42.8827H222.711V27.2935H227.08V29.6413C229.09 26.1668 233.65 27.2935 233.65 27.2935Z" fill="#EC6864"/>
<path d="M248.757 27.2939V42.7387H244.873V42.0992C244.016 42.5114 243.059 42.7387 242.051 42.7387C238.342 42.7387 235.34 39.6628 235.34 35.8686V27.2939H239.224V35.8686C239.224 37.4691 240.489 38.7653 242.051 38.7653C243.613 38.7653 244.873 37.4691 244.873 35.8686V27.2939H248.757Z" fill="#EC6864"/>
<path d="M274.001 32.9718V42.7387H270.117V33.8963C270.117 32.4403 268.963 31.2577 267.542 31.2577C266.12 31.2577 264.966 32.4403 264.966 33.8963V42.7387H261.071V33.8963C261.071 32.446 259.922 31.2692 258.507 31.2692C257.091 31.2692 255.943 32.446 255.943 33.8963V42.7387H252.059V27.2939H255.943V28.698C255.943 28.698 257.601 27.2939 260.17 27.2939C262.74 27.2939 263.925 29.4723 264.222 29.4723C264.519 29.4723 265.274 27.2939 269.029 27.2939C272.783 27.2939 274.001 30.3756 274.001 32.9718Z" fill="#EC6864"/>
<path d="M130.346 20V28.3628C129.066 27.3709 127.489 26.7931 125.785 26.7931C121.524 26.7931 118.066 30.4371 118.066 34.9285C118.066 39.42 121.524 43.064 125.785 43.064C127.489 43.064 129.066 42.4862 130.346 41.4943V42.8522H134.482V20H130.346ZM126.175 39.3276C123.866 39.3276 121.997 37.3611 121.997 34.9285C121.997 32.496 123.866 30.5295 126.175 30.5295C128.483 30.5295 130.346 32.496 130.346 34.9285C130.346 37.3611 128.477 39.3276 126.175 39.3276Z" fill="#FF5C5C"/>
<path d="M104.712 37.0294H115.682C115.787 37.0294 115.902 35.7023 115.913 35.5617C115.958 35.0186 115.909 34.487 115.847 33.9477C115.635 32.0911 114.695 30.3442 113.334 29.1077C112.826 28.6454 112.258 28.2544 111.651 27.9443C110.619 27.4128 109.45 27.1123 108.209 27.1123C103.942 27.1123 100.484 30.6542 100.484 35.0263C100.484 36.0952 100.697 37.1622 101.109 38.1464C101.509 39.0998 102.094 39.9685 102.819 40.6926C103.545 41.4168 104.412 41.9927 105.353 42.3779C106.831 42.9807 108.576 43.1098 110.153 43.0404C110.939 43.0058 111.723 42.9557 112.45 42.6398C112.933 42.428 113.95 41.9407 114.527 41.334L114.029 40.215L113.324 38.8013C112.341 39.5235 111.138 39.9473 109.843 39.9473C108.154 39.9473 106.637 39.2346 105.545 38.0887C105.539 38.079 105.53 38.0733 105.521 38.0636C105.197 37.7689 104.927 37.4184 104.714 37.0313L104.712 37.0294ZM104.353 33.7782C104.857 32.1103 106.378 30.8969 108.177 30.8969C109.976 30.8969 111.493 32.1103 111.997 33.7782H104.353Z" fill="#EC6864"/>
<path d="M180.794 37.0294H191.764C191.869 37.0294 191.984 35.7023 191.995 35.5617C192.04 35.0186 191.991 34.487 191.929 33.9477C191.717 32.0911 190.777 30.3442 189.416 29.1077C188.908 28.6454 188.34 28.2544 187.733 27.9443C186.701 27.4128 185.532 27.1123 184.291 27.1123C180.024 27.1123 176.566 30.6542 176.566 35.0263C176.566 36.0952 176.779 37.1622 177.191 38.1464C177.591 39.0998 178.176 39.9685 178.901 40.6926C179.627 41.4168 180.494 41.9927 181.435 42.3779C182.913 42.9807 184.658 43.1098 186.235 43.0404C187.021 43.0058 187.964 42.8555 188.692 42.5397C189.077 42.3721 190.13 41.9291 190.707 41.3224L190.109 40.215L189.404 38.8013C188.421 39.5235 187.218 39.9473 185.923 39.9473C184.235 39.9473 182.718 39.2346 181.625 38.0887C181.62 38.079 181.61 38.0733 181.601 38.0636C181.278 37.7689 181.007 37.4184 180.794 37.0313V37.0294ZM180.433 33.7782C180.937 32.1103 182.458 30.8969 184.257 30.8969C186.056 30.8969 187.573 32.1103 188.077 33.7782H180.433Z" fill="#FF5C5C"/>
<path d="M152.607 43.0234C147 44.5103 144.934 39.9418 144.934 39.9418L148.284 38.1756C148.284 38.1756 149.115 39.7087 151.16 39.5431C151.876 39.5431 152.455 38.9287 152.455 38.1756C152.455 37.7827 152.299 37.4264 152.047 37.1799C151.795 36.6849 150.479 36.4942 149.564 36.421C149.081 36.3844 148.707 36.3748 148.646 36.3806C146.652 36.0551 145.12 34.2331 145.12 32.0336C145.12 30.5101 145.855 29.1676 146.97 28.378C146.979 28.3722 146.985 28.3683 146.994 28.3626C152.28 24.4643 156.194 30.5159 156.194 30.5159L153.453 31.6464L152.839 31.8987C151.825 30.2578 150.592 30.5313 150.592 30.5313C149.876 30.5313 149.293 31.1399 149.291 31.8987C149.291 33.5108 151.645 33.3914 152.718 33.609C153.572 33.7824 154.425 34.0424 155.142 34.5489C156.35 35.406 156.632 36.7465 156.632 38.1756C156.632 40.3848 154.623 42.7133 152.607 43.0234Z" fill="#FF5C5C"/>
<path d="M205.266 37.6366L208.511 40.0672C207.101 42.0241 204.873 43.2837 202.364 43.2837C198.102 43.2837 194.645 39.6396 194.645 35.1482C194.645 30.6567 198.102 27.0127 202.364 27.0127C204.888 27.0127 207.129 28.2935 208.535 30.2657L205.266 32.6617C204.627 31.4425 203.518 30.6375 202.264 30.6375C200.273 30.6375 198.662 32.6559 198.662 35.1501C198.662 37.6443 200.275 39.657 202.264 39.657C203.518 39.657 204.621 38.8577 205.266 37.6385V37.6366Z" fill="#FF5C5C"/>
<path d="M216.275 30.8975V37.4903C216.275 37.4903 216.481 39.5087 217.906 39.5087H220.341V42.9101C220.341 42.9101 218.95 43.224 216.275 43.1373C213.987 43.1373 212.139 41.2383 212.139 38.9001V30.8975H210.082V27.0879H212.139V24.1719H216.275V27.0879H220.341V30.8975H216.275Z" fill="#EC6864"/>
</g>
<defs>
<clipPath id="clip0_1913_25369">
<rect width="186" height="29" fill="white" transform="translate(88 20)"/>
</clipPath>
</defs>
</svg>
